<?xml version="1.0"?>
<svg xmlns="http://www.w3.org/2000/svg" viewBox="0 0 64 64" width="512" height="512"><g id="Team-2" data-name="Team"><path d="M55,38V35H49.73a17.8,17.8,0,0,1-3.11,7.47L51,47l2-2v8H45l2-2-4.53-4.38A17.8,17.8,0,0,1,35,49.73V55h3l-6,6-6-6h3V49.73a17.8,17.8,0,0,1-7.47-3.11L17,51l2,2H11V45l2,2,4.38-4.53A17.8,17.8,0,0,1,14.27,35H9v3L3,32l6-6v3h5.27a17.8,17.8,0,0,1,3.11-7.47L13,17l-2,2V11h8l-2,2,4.53,4.38A17.8,17.8,0,0,1,29,14.27V9H26l6-6,6,6H35v5.27a17.8,17.8,0,0,1,7.47,3.11L47,13l-2-2h8v8l-2-2-4.38,4.53A17.8,17.8,0,0,1,49.73,29H55V26l6,6Z" style="fill:#ff5023"/><path d="M46,32a13.953,13.953,0,0,1-6,11.48V43a6,6,0,0,0-6-6V34.46A3.98,3.98,0,0,0,36,31V29h1V27a5,5,0,0,0-10,0v2h1v2a4.025,4.025,0,0,0,1.17,2.83,4.225,4.225,0,0,0,.83.63V37a6,6,0,0,0-6,6v.48A14,14,0,1,1,46,32Z" style="fill:#ffd422"/><path d="M40,43v.48a13.958,13.958,0,0,1-16,0V43a6,6,0,0,1,6-6l2,2,2-2A6,6,0,0,1,40,43Z" style="fill:#3d9ae2"/><path d="M34,34.46V37l-2,2-2-2V34.46a3.974,3.974,0,0,0,4,0Z" style="fill:#ffb655"/><path d="M37,27v2H35.83a2.006,2.006,0,0,1-1.42-.59L33,27l-.83.83A4,4,0,0,1,29.34,29H27V27a5,5,0,0,1,10,0Z" style="fill:#787680"/><path d="M36,29v2a3.994,3.994,0,0,1-6,3.46,4.225,4.225,0,0,1-.83-.63A4.025,4.025,0,0,1,28,31V29h1.34a4,4,0,0,0,2.83-1.17L33,27l1.41,1.41a2.006,2.006,0,0,0,1.42.59Z" style="fill:#ffc477"/><path d="M34,34.46v1a3.974,3.974,0,0,1-4,0v-1a3.974,3.974,0,0,0,4,0Z" style="fill:#ffa733"/><path d="M32,47a15.02,15.02,0,1,1,8.57-2.7A14.868,14.868,0,0,1,32,47Zm0-28a13,13,0,0,0,0,26A13.019,13.019,0,0,0,45,32,13.015,13.015,0,0,0,32,19Z" style="fill:#ff9811"/></g></svg>
